<svg version="1.1" id="Layer_1" xmlns="http://www.w3.org/2000/svg" xmlns:xlink="http://www.w3.org/1999/xlink" x="0px" y="0px"
	 width="100%" viewBox="0 0 508 319" enable-background="new 0 0 508 319" xml:space="preserve">
<path fill="#FFFFFF" opacity="1.000000" stroke="none" 
	d="
M4.000000,1.000000 
	C172.279099,1.000000 340.558197,1.000000 508.918640,1.000000 
	C508.918640,107.244789 508.918640,213.489655 508.918640,320.000000 
	C340.976013,320.000000 172.951889,320.000000 4.464991,319.531342 
	C4.025361,273.970459 4.048508,228.878250 4.432075,183.873322 
	C23.167051,191.739304 41.841747,198.573166 61.444675,202.671555 
	C79.439659,206.433731 97.491486,208.330704 115.811829,205.452820 
	C141.765610,201.375809 163.098389,188.524826 181.718750,170.620392 
	C191.823105,160.904510 200.655396,150.137451 207.648193,138.446884 
	C207.698914,150.820847 211.524734,156.568359 220.246536,158.886002 
	C225.157669,160.191071 229.929382,162.104279 234.647476,164.028915 
	C239.396561,165.966217 243.926361,168.444595 248.686676,170.350128 
	C256.231445,173.370316 263.557068,172.177155 270.630798,167.947220 
	C266.459412,167.381454 262.214264,168.329559 258.171997,167.781433 
	C253.488022,167.146317 248.866791,165.488022 244.432831,163.732239 
	C240.272903,162.084961 236.392853,159.730927 232.178024,157.579910 
	C243.450012,150.088104 246.882431,139.717529 244.982620,127.407700 
	C243.747849,119.407104 238.064255,115.109459 229.953156,114.962631 
	C222.282181,114.823784 216.744507,118.628227 212.114655,123.797302 
	C211.803864,118.394714 213.080811,113.093910 208.922424,108.633934 
	C207.840073,109.876198 206.981735,110.673210 206.345627,111.619591 
	C196.229462,126.669891 183.160004,138.656296 167.672791,147.879471 
	C150.080414,158.356323 131.178040,164.747025 110.376358,164.099960 
	C107.231384,164.002106 104.265961,163.257523 103.877220,159.342453 
	C103.434807,154.886978 107.052750,155.475952 109.626350,154.976654 
	C118.847099,153.187744 127.852165,150.840866 135.129929,144.454208 
	C139.921295,140.249496 142.321136,135.081436 140.593384,128.236298 
	C138.799622,128.791733 137.225494,129.251572 135.669235,129.765457 
	C124.356995,133.500809 112.847214,135.217773 100.872131,134.186569 
	C89.129684,133.175385 77.328827,132.078354 65.568779,132.226212 
	C50.342525,132.417618 37.187912,138.401169 26.313047,149.272858 
	C17.108004,158.475204 10.535446,169.396866 4.642222,180.689728 
	C4.240438,178.403427 4.018617,176.421783 4.017948,174.440063 
	C3.998440,116.626709 4.000986,58.813354 4.000000,1.000000 
M104.194214,54.077801 
	C95.330879,49.961502 86.628189,51.701328 81.243095,58.666134 
	C76.191269,65.199913 76.082939,74.836372 82.130783,81.211197 
	C93.570221,93.269096 105.559700,104.805153 117.972000,117.208984 
	C120.042686,114.801468 121.768745,112.536598 123.755081,110.529282 
	C133.010971,101.175575 142.468079,92.017708 151.600250,82.545914 
	C158.996323,74.874786 158.939423,64.288834 151.893433,56.942879 
	C145.326691,50.096603 134.442444,50.034702 126.754723,57.054008 
	C123.594582,59.939400 120.877663,63.310230 117.992424,66.424316 
	C113.196602,62.071693 109.014061,58.275677 104.194214,54.077801 
M352.925751,158.422577 
	C353.942322,151.717773 354.958862,145.012985 355.989746,138.213684 
	C362.798615,138.213684 369.254242,138.213684 376.064514,138.213684 
	C375.207550,145.132919 374.378510,151.826736 373.521057,158.749924 
	C375.540344,158.749924 377.111359,158.749924 378.929932,158.749924 
	C380.908752,144.112411 382.856262,129.706375 384.861389,114.874191 
	C382.526306,115.051765 380.946167,115.171936 379.400940,115.289444 
	C378.458618,121.761490 377.581207,127.787567 376.724396,133.672211 
	C369.744690,133.672211 363.328094,133.672211 356.627258,133.672211 
	C357.405823,127.325958 358.143646,121.312119 358.889435,115.232956 
	C356.626495,115.232956 355.020508,115.232956 353.378296,115.232956 
	C351.438141,129.899063 349.530182,144.322067 347.602814,158.891846 
	C349.601318,158.891846 350.925873,158.891846 352.925751,158.422577 
M166.040680,130.563339 
	C156.794647,137.789658 147.548599,145.015961 138.019638,152.463409 
	C154.603622,148.579559 170.162567,142.801285 183.337265,131.847610 
	C189.536102,126.693771 190.093567,115.077530 185.073822,108.820129 
	C178.914825,115.881584 172.730957,122.971535 166.040680,130.563339 
M493.544495,129.839355 
	C492.089264,130.547745 490.634033,131.256134 488.497040,132.296387 
	C489.368286,125.562500 490.162781,119.421715 491.000946,112.943611 
	C488.858673,113.046997 487.423279,113.116264 486.006866,113.184616 
	C483.951447,128.558441 481.935730,143.635025 479.857880,159.176468 
	C482.041168,158.939651 483.437103,158.788239 484.827362,158.637436 
	C485.705658,152.126434 486.474365,146.021347 487.370453,139.935028 
	C487.919586,136.205048 492.707581,132.459427 496.374939,133.097183 
	C501.322998,133.957672 500.023590,137.904129 499.708252,141.027451 
	C499.113953,146.914230 498.224915,152.771240 497.397797,159.104431 
	C499.600464,158.945999 501.152222,158.834381 502.517731,158.736160 
	C503.388397,151.815063 504.348999,145.405334 504.966156,138.962708 
	C505.737610,130.910172 502.420532,128.077469 493.544495,129.839355 
M336.217560,138.819839 
	C339.498169,135.993118 342.778778,133.166382 346.059418,130.339661 
	C337.243317,127.931831 335.912415,137.135712 329.223938,138.649261 
	C330.348724,129.921204 331.418640,121.618866 332.546112,112.869820 
	C330.336792,113.049225 328.791931,113.174675 327.553833,113.275215 
	C325.477844,128.747498 323.475891,143.667862 321.487091,158.490204 
	C325.511230,159.934601 326.717468,158.413696 326.928040,154.980179 
	C327.139252,151.535767 327.816681,148.119934 328.409698,143.822540 
	C340.281464,158.950150 340.281464,158.950150 343.575592,158.620361 
	C340.689453,153.716888 338.019836,148.989365 335.146576,144.389008 
	C333.903229,142.398315 333.578064,140.807434 336.217560,138.819839 
M440.909485,129.091095 
	C439.398621,129.345520 437.893250,129.767929 436.375702,129.817581 
	C433.647614,129.906845 430.694061,129.079224 428.219727,129.857986 
	C419.930664,132.466843 414.515625,143.185013 416.745575,151.663040 
	C418.514648,158.388931 425.241119,161.143829 431.205383,157.534698 
	C432.421722,156.798645 433.493347,155.823502 434.627869,154.961517 
	C437.788940,159.097763 439.584076,159.918640 442.489532,158.433395 
	C443.213684,158.063217 443.824188,157.186340 444.110352,156.404526 
	C444.205170,156.145508 443.122528,155.032654 442.572601,155.028366 
	C438.686096,154.998047 439.481476,152.446121 439.814270,150.145248 
	C440.670135,144.228394 441.612549,138.323090 442.371979,132.394165 
	C442.508667,131.327225 441.937500,130.169601 440.909485,129.091095 
M269.833008,138.925522 
	C268.496460,143.163147 267.727570,147.723557 265.580170,151.500107 
	C264.531097,153.345078 260.914795,153.730286 258.460510,154.776230 
	C257.637817,152.477676 256.021881,150.134842 256.147186,147.889191 
	C256.470703,142.091980 257.575043,136.339203 258.325989,130.563278 
	C258.382233,130.130737 258.109131,129.655350 257.924866,128.955963 
	C256.441589,129.053177 255.019135,129.146378 253.619339,129.238113 
	C252.678085,136.132111 251.390411,142.690033 251.067352,149.295151 
	C250.931580,152.070999 252.056488,156.343277 254.005585,157.430649 
	C256.561035,158.856293 260.530548,158.079163 263.825989,157.690643 
	C265.235016,157.524521 266.477783,155.948044 267.785400,155.020020 
	C271.074158,159.050873 273.383057,160.035126 276.063507,158.212051 
	C276.667206,157.801453 276.412659,156.128937 276.553192,155.037354 
	C271.160950,155.054764 273.160614,151.240067 273.451538,148.657227 
	C274.171509,142.264603 275.182861,135.904785 276.107513,129.315323 
	C274.087128,129.315323 272.562073,129.315323 271.089691,129.315323 
	C270.678558,132.451660 270.311737,135.249924 269.833008,138.925522 
M401.348724,159.017242 
	C403.873932,158.279160 406.443726,157.657028 408.890656,156.715607 
	C409.451782,156.499710 410.074371,154.727219 409.827789,154.466583 
	C409.213531,153.817322 408.052612,153.213257 407.224548,153.338806 
	C405.618774,153.582291 404.129913,154.565460 402.523651,154.842834 
	C396.903107,155.813400 393.846619,153.097427 393.876312,148.566620 
	C399.231659,146.232452 404.573883,144.718628 408.834412,141.685440 
	C410.810333,140.278717 411.947723,135.480911 411.107269,133.028549 
	C410.429138,131.049759 406.259216,129.296143 403.556671,129.168182 
	C396.009857,128.810837 389.528412,135.564301 388.250183,144.141327 
	C386.936157,152.958572 391.477478,158.481186 401.348724,159.017242 
M471.813873,120.280167 
	C465.040497,119.659813 468.504883,125.765442 466.187073,127.884178 
	C464.851532,128.982468 463.516022,130.080765 462.180511,131.179077 
	C463.356995,132.161545 464.533478,133.144012 465.942505,134.320648 
	C465.833221,135.089233 465.658752,136.233810 465.509338,137.381622 
	C464.823334,142.652283 463.952393,147.908279 463.523499,153.199997 
	C463.180786,157.428268 465.747314,159.334259 469.748688,158.951035 
	C471.958221,158.739426 475.499481,159.503052 475.001556,156.812408 
	C472.034943,154.685638 468.662811,153.323929 468.722626,152.134857 
	C469.043488,145.756714 470.219208,139.421585 470.983856,133.906403 
	C473.771179,131.907303 478.759766,135.378906 477.978729,129.186707 
	C475.932098,129.031494 473.994781,128.884567 472.108185,128.741470 
	C472.249878,125.833984 472.382385,123.115433 471.813873,120.280167 
M311.528168,154.172211 
	C304.547302,156.013840 300.823822,153.302536 300.968414,146.205963 
	C301.014801,143.929871 301.480621,141.530975 302.340637,139.427917 
	C304.742218,133.555191 308.695953,132.127335 314.710449,134.157501 
	C315.991302,134.589859 317.718170,133.700882 319.239563,133.420639 
	C319.242157,132.726059 319.244751,132.031479 319.247345,131.336899 
	C316.685638,130.549942 314.154694,129.222809 311.556610,129.074982 
	C302.978485,128.586884 296.261536,135.585510 295.582947,145.393875 
	C295.257599,150.096588 296.198853,154.490448 300.441895,157.239380 
	C304.917664,160.139130 309.667236,159.521286 314.199524,157.262970 
	C315.033264,156.847549 315.335907,155.366211 315.883698,154.376877 
	C314.684845,154.219849 313.485992,154.062820 311.528168,154.172211 
M454.422577,151.180862 
	C456.146454,138.586456 457.870361,125.992058 459.660309,112.915085 
	C457.431366,113.057678 455.883026,113.156731 454.563965,113.241119 
	C452.495605,128.639175 450.492737,143.549683 448.454926,158.720276 
	C450.458771,158.720276 451.996887,158.720276 453.648468,158.720276 
	C453.878632,156.302902 454.081238,154.175491 454.422577,151.180862 
M285.451721,130.923187 
	C284.346924,140.097305 283.242126,149.271408 282.103302,158.728210 
	C283.970306,158.728210 285.499908,158.728210 287.013306,158.728210 
	C288.298462,148.794113 289.545685,139.153412 290.922852,128.508041 
	C288.647522,129.169022 287.098724,129.618927 285.451721,130.923187 
M288.277618,115.645042 
	C287.806427,117.327530 287.335236,119.010017 286.864044,120.692497 
	C288.186523,121.041008 289.888062,122.058296 290.739532,121.575722 
	C291.913239,120.910530 292.444977,119.112701 293.251740,117.800056 
	C291.801453,116.949730 290.351196,116.099403 288.277618,115.645042 
z"/>
<path fill="#EAECF1" opacity="1.000000" stroke="none" 
	d="
M3.500000,1.000000 
	C4.000986,58.813354 3.998440,116.626709 4.017948,174.440063 
	C4.018617,176.421783 4.240438,178.403427 4.587990,180.980835 
	C4.568419,182.313065 4.320037,183.049545 4.071655,183.786041 
	C4.048508,228.878250 4.025361,273.970459 4.001107,319.531342 
	C3.001541,320.000000 2.003081,320.000000 1.002311,320.000000 
	C1.000000,214.996902 0.991473,109.993790 1.101446,4.990807 
	C1.102762,3.734374 -0.945022,0.687236 3.500000,1.000000 
z"/>
<path fill="#73E8D2" opacity="1.000000" stroke="none" 
	d="
M4.432075,183.873322 
	C4.320037,183.049545 4.568419,182.313065 4.871033,181.285446 
	C10.535446,169.396866 17.108004,158.475204 26.313047,149.272858 
	C37.187912,138.401169 50.342525,132.417618 65.568779,132.226212 
	C77.328827,132.078354 89.129684,133.175385 100.872131,134.186569 
	C112.847214,135.217773 124.356995,133.500809 135.669235,129.765457 
	C137.225494,129.251572 138.799622,128.791733 140.593384,128.236298 
	C142.321136,135.081436 139.921295,140.249496 135.129929,144.454208 
	C127.852165,150.840866 118.847099,153.187744 109.626350,154.976654 
	C107.052750,155.475952 103.434807,154.886978 103.877220,159.342453 
	C104.265961,163.257523 107.231384,164.002106 110.376358,164.099960 
	C131.178040,164.747025 150.080414,158.356323 167.672791,147.879471 
	C183.160004,138.656296 196.229462,126.669891 206.345627,111.619591 
	C206.981735,110.673210 207.840073,109.876198 208.922424,108.633934 
	C213.080811,113.093910 211.803864,118.394714 212.055084,124.142014 
	C210.552460,129.281357 209.092392,133.601593 207.632324,137.921829 
	C200.655396,150.137451 191.823105,160.904510 181.718750,170.620392 
	C163.098389,188.524826 141.765610,201.375809 115.811829,205.452820 
	C97.491486,208.330704 79.439659,206.433731 61.444675,202.671555 
	C41.841747,198.573166 23.167051,191.739304 4.432075,183.873322 
z"/>
<path fill="#E34468" opacity="1.000000" stroke="none" 
	d="
M104.512863,54.278732 
	C109.014061,58.275677 113.196602,62.071693 117.992424,66.424316 
	C120.877663,63.310230 123.594582,59.939400 126.754723,57.054008 
	C134.442444,50.034702 145.326691,50.096603 151.893433,56.942879 
	C158.939423,64.288834 158.996323,74.874786 151.600250,82.545914 
	C142.468079,92.017708 133.010971,101.175575 123.755081,110.529282 
	C121.768745,112.536598 120.042686,114.801468 117.972000,117.208984 
	C105.559700,104.805153 93.570221,93.269096 82.130783,81.211197 
	C76.082939,74.836372 76.191269,65.199913 81.243095,58.666134 
	C86.628189,51.701328 95.330879,49.961502 104.512863,54.278732 
M112.855774,91.707260 
	C112.927139,93.322754 112.998497,94.938248 113.077293,96.722031 
	C116.122513,96.722031 118.856483,96.722031 121.771736,96.722031 
	C121.941124,94.065742 122.094444,91.661339 122.279396,88.760933 
	C125.025024,88.760933 127.415298,88.760933 129.675842,88.760933 
	C129.675842,85.461365 129.675842,82.694748 129.675842,79.860062 
	C127.077835,79.684341 124.788040,79.529465 122.281265,79.359917 
	C122.068451,76.744057 121.872955,74.341019 121.685104,72.031929 
	C118.606415,72.031929 115.885788,72.031929 113.094536,72.031929 
	C112.907784,74.690132 112.748955,76.950806 112.578514,79.376869 
	C109.905800,79.583076 107.520874,79.767075 105.195404,79.946495 
	C105.195404,83.202461 105.195404,85.939491 105.195404,87.956215 
	C108.078506,89.031723 110.455772,89.918533 112.855774,91.707260 
z"/>
<path fill="#6522EC" opacity="1.000000" stroke="none" 
	d="
M207.648193,138.446884 
	C209.092392,133.601593 210.552460,129.281357 212.072113,124.616394 
	C216.744507,118.628227 222.282181,114.823784 229.953156,114.962631 
	C238.064255,115.109459 243.747849,119.407104 244.982620,127.407700 
	C246.882431,139.717529 243.450012,150.088104 232.178024,157.579910 
	C236.392853,159.730927 240.272903,162.084961 244.432831,163.732239 
	C248.866791,165.488022 253.488022,167.146317 258.171997,167.781433 
	C262.214264,168.329559 266.459412,167.381454 270.630798,167.947220 
	C263.557068,172.177155 256.231445,173.370316 248.686676,170.350128 
	C243.926361,168.444595 239.396561,165.966217 234.647476,164.028915 
	C229.929382,162.104279 225.157669,160.191071 220.246536,158.886002 
	C211.524734,156.568359 207.698914,150.820847 207.648193,138.446884 
M213.900589,135.663910 
	C213.689362,137.309311 213.367477,138.949234 213.285995,140.601044 
	C212.927582,147.868027 216.311417,153.593124 221.608963,154.816681 
	C227.609879,156.202682 234.391571,152.947922 236.697525,146.251877 
	C238.535812,140.913864 239.382355,135.023529 239.469879,129.359818 
	C239.540344,124.799820 237.192307,120.515480 232.065765,119.303871 
	C226.980301,118.101974 222.189896,119.500206 219.181671,123.708046 
	C216.843781,126.978264 215.694427,131.098160 213.900589,135.663910 
z"/>
<path fill="#6522EC" opacity="1.000000" stroke="none" 
	d="
M352.588074,158.657211 
	C350.925873,158.891846 349.601318,158.891846 347.602814,158.891846 
	C349.530182,144.322067 351.438141,129.899063 353.378296,115.232956 
	C355.020508,115.232956 356.626495,115.232956 358.889435,115.232956 
	C358.143646,121.312119 357.405823,127.325958 356.627258,133.672211 
	C363.328094,133.672211 369.744690,133.672211 376.724396,133.672211 
	C377.581207,127.787567 378.458618,121.761490 379.400940,115.289444 
	C380.946167,115.171936 382.526306,115.051765 384.861389,114.874191 
	C382.856262,129.706375 380.908752,144.112411 378.929932,158.749924 
	C377.111359,158.749924 375.540344,158.749924 373.521057,158.749924 
	C374.378510,151.826736 375.207550,145.132919 376.064514,138.213684 
	C369.254242,138.213684 362.798615,138.213684 355.989746,138.213684 
	C354.958862,145.012985 353.942322,151.717773 352.588074,158.657211 
z"/>
<path fill="#76E9D3" opacity="1.000000" stroke="none" 
	d="
M166.293884,130.312408 
	C172.730957,122.971535 178.914825,115.881584 185.073822,108.820129 
	C190.093567,115.077530 189.536102,126.693771 183.337265,131.847610 
	C170.162567,142.801285 154.603622,148.579559 138.019638,152.463409 
	C147.548599,145.015961 156.794647,137.789658 166.293884,130.312408 
z"/>
<path fill="#6825EC" opacity="1.000000" stroke="none" 
	d="
M493.922638,129.677567 
	C502.420532,128.077469 505.737610,130.910172 504.966156,138.962708 
	C504.348999,145.405334 503.388397,151.815063 502.517731,158.736160 
	C501.152222,158.834381 499.600464,158.945999 497.397797,159.104431 
	C498.224915,152.771240 499.113953,146.914230 499.708252,141.027451 
	C500.023590,137.904129 501.322998,133.957672 496.374939,133.097183 
	C492.707581,132.459427 487.919586,136.205048 487.370453,139.935028 
	C486.474365,146.021347 485.705658,152.126434 484.827362,158.637436 
	C483.437103,158.788239 482.041168,158.939651 479.857880,159.176468 
	C481.935730,143.635025 483.951447,128.558441 486.006866,113.184616 
	C487.423279,113.116264 488.858673,113.046997 491.000946,112.943611 
	C490.162781,119.421715 489.368286,125.562500 488.497040,132.296387 
	C490.634033,131.256134 492.089264,130.547745 493.922638,129.677567 
z"/>
<path fill="#6927EC" opacity="1.000000" stroke="none" 
	d="
M335.959839,139.074554 
	C333.578064,140.807434 333.903229,142.398315 335.146576,144.389008 
	C338.019836,148.989365 340.689453,153.716888 343.575592,158.620361 
	C340.281464,158.950150 340.281464,158.950150 328.409698,143.822540 
	C327.816681,148.119934 327.139252,151.535767 326.928040,154.980179 
	C326.717468,158.413696 325.511230,159.934601 321.487091,158.490204 
	C323.475891,143.667862 325.477844,128.747498 327.553833,113.275215 
	C328.791931,113.174675 330.336792,113.049225 332.546112,112.869820 
	C331.418640,121.618866 330.348724,129.921204 329.223938,138.649261 
	C335.912415,137.135712 337.243317,127.931831 346.059418,130.339661 
	C342.778778,133.166382 339.498169,135.993118 335.959839,139.074554 
M329.216217,139.416534 
	C329.386200,139.485672 329.556213,139.554825 329.726196,139.623962 
	C329.676117,139.434906 329.626007,139.245850 329.216217,139.416534 
z"/>
<path fill="#6825EC" opacity="1.000000" stroke="none" 
	d="
M441.301331,129.072479 
	C441.937500,130.169601 442.508667,131.327225 442.371979,132.394165 
	C441.612549,138.323090 440.670135,144.228394 439.814270,150.145248 
	C439.481476,152.446121 438.686096,154.998047 442.572601,155.028366 
	C443.122528,155.032654 444.205170,156.145508 444.110352,156.404526 
	C443.824188,157.186340 443.213684,158.063217 442.489532,158.433395 
	C439.584076,159.918640 437.788940,159.097763 434.627869,154.961517 
	C433.493347,155.823502 432.421722,156.798645 431.205383,157.534698 
	C425.241119,161.143829 418.514648,158.388931 416.745575,151.663040 
	C414.515625,143.185013 419.930664,132.466843 428.219727,129.857986 
	C430.694061,129.079224 433.647614,129.906845 436.375702,129.817581 
	C437.893250,129.767929 439.398621,129.345520 441.301331,129.072479 
M436.798767,139.147552 
	C436.393219,137.380127 436.375397,134.362915 435.505310,134.093002 
	C433.381165,133.434067 430.380310,133.236832 428.593811,134.300476 
	C423.389984,137.398743 421.702454,142.793655 422.182922,148.495148 
	C422.369843,150.713272 424.184814,154.078674 425.895050,154.535080 
	C427.730927,155.025009 431.287750,153.292450 432.365295,151.494156 
	C434.435608,148.039001 435.285828,143.852768 436.798767,139.147552 
z"/>
<path fill="#6826EC" opacity="1.000000" stroke="none" 
	d="
M269.888977,138.486847 
	C270.311737,135.249924 270.678558,132.451660 271.089691,129.315323 
	C272.562073,129.315323 274.087128,129.315323 276.107513,129.315323 
	C275.182861,135.904785 274.171509,142.264603 273.451538,148.657227 
	C273.160614,151.240067 271.160950,155.054764 276.553192,155.037354 
	C276.412659,156.128937 276.667206,157.801453 276.063507,158.212051 
	C273.383057,160.035126 271.074158,159.050873 267.785400,155.020020 
	C266.477783,155.948044 265.235016,157.524521 263.825989,157.690643 
	C260.530548,158.079163 256.561035,158.856293 254.005585,157.430649 
	C252.056488,156.343277 250.931580,152.070999 251.067352,149.295151 
	C251.390411,142.690033 252.678085,136.132111 253.619339,129.238113 
	C255.019135,129.146378 256.441589,129.053177 257.924866,128.955963 
	C258.109131,129.655350 258.382233,130.130737 258.325989,130.563278 
	C257.575043,136.339203 256.470703,142.091980 256.147186,147.889191 
	C256.021881,150.134842 257.637817,152.477676 258.460510,154.776230 
	C260.914795,153.730286 264.531097,153.345078 265.580170,151.500107 
	C267.727570,147.723557 268.496460,143.163147 269.888977,138.486847 
z"/>
<path fill="#6623EC" opacity="1.000000" stroke="none" 
	d="
M400.918091,159.020020 
	C391.477478,158.481186 386.936157,152.958572 388.250183,144.141327 
	C389.528412,135.564301 396.009857,128.810837 403.556671,129.168182 
	C406.259216,129.296143 410.429138,131.049759 411.107269,133.028549 
	C411.947723,135.480911 410.810333,140.278717 408.834412,141.685440 
	C404.573883,144.718628 399.231659,146.232452 393.876312,148.566620 
	C393.846619,153.097427 396.903107,155.813400 402.523651,154.842834 
	C404.129913,154.565460 405.618774,153.582291 407.224548,153.338806 
	C408.052612,153.213257 409.213531,153.817322 409.827789,154.466583 
	C410.074371,154.727219 409.451782,156.499710 408.890656,156.715607 
	C406.443726,157.657028 403.873932,158.279160 400.918091,159.020020 
M397.230743,142.908707 
	C400.105072,141.412552 403.405914,140.389572 405.735779,138.289398 
	C408.146088,136.116760 406.843231,133.402695 403.725342,133.026810 
	C399.972809,132.574402 393.927246,137.767685 394.079681,141.525955 
	C394.100250,142.032654 395.600006,142.479324 397.230743,142.908707 
z"/>
<path fill="#6724EC" opacity="1.000000" stroke="none" 
	d="
M472.164368,120.338524 
	C472.382385,123.115433 472.249878,125.833984 472.108185,128.741470 
	C473.994781,128.884567 475.932098,129.031494 477.978729,129.186707 
	C478.759766,135.378906 473.771179,131.907303 470.983856,133.906403 
	C470.219208,139.421585 469.043488,145.756714 468.722626,152.134857 
	C468.662811,153.323929 472.034943,154.685638 475.001556,156.812408 
	C475.499481,159.503052 471.958221,158.739426 469.748688,158.951035 
	C465.747314,159.334259 463.180786,157.428268 463.523499,153.199997 
	C463.952393,147.908279 464.823334,142.652283 465.509338,137.381622 
	C465.658752,136.233810 465.833221,135.089233 465.942505,134.320648 
	C464.533478,133.144012 463.356995,132.161545 462.180511,131.179077 
	C463.516022,130.080765 464.851532,128.982468 466.187073,127.884178 
	C468.504883,125.765442 465.040497,119.659813 472.164368,120.338524 
z"/>
<path fill="#6724EC" opacity="1.000000" stroke="none" 
	d="
M311.907654,154.039001 
	C313.485992,154.062820 314.684845,154.219849 315.883698,154.376877 
	C315.335907,155.366211 315.033264,156.847549 314.199524,157.262970 
	C309.667236,159.521286 304.917664,160.139130 300.441895,157.239380 
	C296.198853,154.490448 295.257599,150.096588 295.582947,145.393875 
	C296.261536,135.585510 302.978485,128.586884 311.556610,129.074982 
	C314.154694,129.222809 316.685638,130.549942 319.247345,131.336899 
	C319.244751,132.031479 319.242157,132.726059 319.239563,133.420639 
	C317.718170,133.700882 315.991302,134.589859 314.710449,134.157501 
	C308.695953,132.127335 304.742218,133.555191 302.340637,139.427917 
	C301.480621,141.530975 301.014801,143.929871 300.968414,146.205963 
	C300.823822,153.302536 304.547302,156.013840 311.907654,154.039001 
z"/>
<path fill="#6926EC" opacity="1.000000" stroke="none" 
	d="
M454.353210,151.614471 
	C454.081238,154.175491 453.878632,156.302902 453.648468,158.720276 
	C451.996887,158.720276 450.458771,158.720276 448.454926,158.720276 
	C450.492737,143.549683 452.495605,128.639175 454.563965,113.241119 
	C455.883026,113.156731 457.431366,113.057678 459.660309,112.915085 
	C457.870361,125.992058 456.146454,138.586456 454.353210,151.614471 
z"/>
<path fill="#6825EC" opacity="1.000000" stroke="none" 
	d="
M285.500824,130.496017 
	C287.098724,129.618927 288.647522,129.169022 290.922852,128.508041 
	C289.545685,139.153412 288.298462,148.794113 287.013306,158.728210 
	C285.499908,158.728210 283.970306,158.728210 282.103302,158.728210 
	C283.242126,149.271408 284.346924,140.097305 285.500824,130.496017 
z"/>
<path fill="#6826EC" opacity="1.000000" stroke="none" 
	d="
M288.589264,115.447060 
	C290.351196,116.099403 291.801453,116.949730 293.251740,117.800049 
	C292.444977,119.112701 291.913239,120.910530 290.739532,121.575722 
	C289.888062,122.058296 288.186523,121.041008 286.864044,120.692497 
	C287.335236,119.010017 287.806427,117.327530 288.589264,115.447060 
z"/>
<path fill="#FFFFFF" opacity="1.000000" stroke="none" 
	d="
M112.844406,91.256302 
	C110.455772,89.918533 108.078506,89.031723 105.195404,87.956215 
	C105.195404,85.939491 105.195404,83.202461 105.195404,79.946495 
	C107.520874,79.767075 109.905800,79.583076 112.578514,79.376869 
	C112.748955,76.950806 112.907784,74.690132 113.094536,72.031929 
	C115.885788,72.031929 118.606415,72.031929 121.685104,72.031929 
	C121.872955,74.341019 122.068451,76.744057 122.281265,79.359917 
	C124.788040,79.529465 127.077835,79.684341 129.675842,79.860062 
	C129.675842,82.694748 129.675842,85.461365 129.675842,88.760933 
	C127.415298,88.760933 125.025024,88.760933 122.279396,88.760933 
	C122.094444,91.661339 121.941124,94.065742 121.771736,96.722031 
	C118.856483,96.722031 116.122513,96.722031 113.077293,96.722031 
	C112.998497,94.938248 112.927139,93.322754 112.844406,91.256302 
z"/>
<path fill="#FCFBFF" opacity="1.000000" stroke="none" 
	d="
M213.958710,135.252167 
	C215.694427,131.098160 216.843781,126.978264 219.181671,123.708046 
	C222.189896,119.500206 226.980301,118.101974 232.065765,119.303871 
	C237.192307,120.515480 239.540344,124.799820 239.469879,129.359818 
	C239.382355,135.023529 238.535812,140.913864 236.697525,146.251877 
	C234.391571,152.947922 227.609879,156.202682 221.608963,154.816681 
	C216.311417,153.593124 212.927582,147.868027 213.285995,140.601044 
	C213.367477,138.949234 213.689362,137.309311 213.958710,135.252167 
z"/>
<path fill="#FFFFFF" opacity="1.000000" stroke="none" 
	d="
M329.396057,139.236664 
	C329.626007,139.245850 329.676117,139.434906 329.726196,139.623962 
	C329.556213,139.554825 329.386200,139.485672 329.396057,139.236664 
z"/>
<path fill="#FAF8FE" opacity="1.000000" stroke="none" 
	d="
M436.720459,139.558685 
	C435.285828,143.852768 434.435608,148.039001 432.365295,151.494156 
	C431.287750,153.292450 427.730927,155.025009 425.895050,154.535080 
	C424.184814,154.078674 422.369843,150.713272 422.182922,148.495148 
	C421.702454,142.793655 423.389984,137.398743 428.593811,134.300476 
	C430.380310,133.236832 433.381165,133.434067 435.505310,134.093002 
	C436.375397,134.362915 436.393219,137.380127 436.720459,139.558685 
z"/>
<path fill="#F8F5FE" opacity="1.000000" stroke="none" 
	d="
M396.822784,142.931244 
	C395.600006,142.479324 394.100250,142.032654 394.079681,141.525955 
	C393.927246,137.767685 399.972809,132.574402 403.725342,133.026810 
	C406.843231,133.402695 408.146088,136.116760 405.735779,138.289398 
	C403.405914,140.389572 400.105072,141.412552 396.822784,142.931244 
z"/>
</svg>